<?xml version="1.0" encoding="UTF-8"?>
<svg id="Layer_1" xmlns="http://www.w3.org/2000/svg" version="1.1" viewBox="0 0 1600 1584">
  <defs>
    <style>
      .st0 {
        fill: #b69f64;
      }
    </style>
  </defs>
  <path class="st0" d="M1237.6,48c-12.1,5.8-24.3,4.9-34.9-2.1l-16-10.4-14.3-2.4c-1.1-.2-2.4-1.1-2.8-1.8-1.9-3.2,11.8-11.5,25-2.1,16.8,12,37.3,11.6,53.2-1.8,1.9-1.6,5.5-1.6,7.6-1,1.9.5,4.9,3.7,3,6.6-4.6,7.1-12.8,11.1-20.7,15Z"/>
  <circle class="st0" cx="1214.9" cy="14.2" r="12.2"/>
  <path class="st0" d="M562.3,85.3h187.4c0,0,0,29.7,0,29.7l-10.2-11.5-72.9.2v90.6c0,0-.1,107.4-.1,107.4l9.7,17.9-49.2.2,12.1-18.3V103.7h-67.2c-3.1,3.9-4.7,7.4-9.5,10.7v-29Z"/>
  <path class="st0" d="M1012.9,308.9c.6,3.4.8,6.3-.8,10.5h-38.4c-1.7-3.2-1.5-6.9-.8-10.4,2.4-.4,4.2-.5,6.3-1.8v-112.9h-135c0,.1-.4,106.2-.4,106.2l9.3,19.4-47.4-.5,11-19.1v-105.9c0,0,0-99.3,0-99.3l27.3,7.6v82.6c.1,0,135,.2,135,.2l.3-65.2c0-7.6,10.7-1.3,25.8-7.3v81.3c.1,0,.3,113.4.3,113.4l7.4,1.1Z"/>
  <path class="st0" d="M219,90.7c-1.3,3.1-7.3,1.7-7.3,7.3v96.4c0,0,0,1383.6,0,1383.6h-26.5V273c0,0,.1-78.6.1-78.6h0c0,0-137.4,0-137.4,0l-.4,34.5c-.2,20.2-.9,40.1-.1,60.1.1,4.2.4,8.4.7,12.7v1276.3h-27.6V194.4c.1,0,.2-93.4.2-93.4l-10.9-14.2h44c1.1,0,1.4,4.3.5,5.1-1.1.9-3.5,1.3-6.4,1.7-1.7,30.5-.4,61,0,91.8h137.5c0,0-.3-83.6-.3-83.6,0-5.8-8-8.6-10.2-15h42.6c1.7-.1,2.2,2.8,1.7,3.9Z"/>
  <path class="st0" d="M1330.7,194.4c.6,7.2.6,14.5-.1,21.9-4.5,46.6-34.6,85-79,100.6-49.4,17.4-105.6,4.1-141.5-34.2-15.5-16.5-24.2-36.3-28.2-58.1-1.8-10.2-2.5-20.3-1.8-30.2,3.1-51.8,38.8-96.8,91.7-109.9,2.2-.6,3.9.8,4.1,2.3.1,1.1-.2,3.8-2,4.5-35.8,14.5-61.8,45-69.4,83.4-1.3,6.6-2,13.1-2.2,19.7-1,30,9.1,59.5,29.3,82.4,17.9,20.3,42.2,30.4,68.9,31.6,35.6,1.7,67.9-15,86.7-45.4,12.9-20.7,18.7-44.8,17.3-68.6-1-18.3-6.4-36.3-15.9-52.8-15.4-26.6-39.8-43.7-68-51.4-.7-3,2-4.8,4.8-4.6,21.2,1.3,40.3,9.4,57.2,21.9,28.7,21.2,45.7,52.5,48.3,86.9Z"/>
  <path class="st0" d="M1590.3,319.6c-18.4,4.6-36.3-2.6-50.9-13.9-24.3-18.9-44.1-41.9-63.2-66l-17.2-23.3c19.5.3,36.6-8,47.8-22,6-7.3,10.3-16.2,12.5-26.2,5.2-24.3-3.6-47.3-24.6-61.2-16.9-11-37.5-13.9-57.1-9.2v1480.2h-26.2V102.1c0,0-11.5-15.1-11.5-15.1l45.2-.7c41.9-.6,85.4,6.6,99.1,50.1,6.4,20.4,2.6,41.3-8.3,57.9-8.7,13.1-21.8,23.5-37.9,28.6,4.8,9.7,11.1,16,17,23.8,21.3,27.8,45.8,50.6,75.4,72.8Z"/>
  <path class="st0" d="M537.6,320.1c-8.9,3.2-16.5.3-24-4-26.1-15-39.1-50.9-50.4-79.1l22.5-.9c4-5.1-1.5-13.7-8-14.8-29.8-5-63.3-9.2-88.5,8.5-10.6,7.4-20,15.2-28.3,24.5-14.1,15.8-27.3,31.5-37,50.7-1.6,3.1,1.5,9.3-2.5,12.4l-46.6.2c28.4-33.2,57.9-63.3,90.1-91.9,13.9-12.7,28.9-23.5,45.5-31.3,7.2-3.4,14.7-6.2,22.5-8.5l-30.6-70.9-37.2,79.3-11.2,23.9c-3.1,7.1-8.5,12.1-16.2,14.6l16.5-38.5,58.4-136.4,62.5,136.4,14.6,31.8,25.8,56.9c6,13.4,12.6,25.5,22.3,37.1Z"/>
</svg>
