<?xml version="1.0" encoding="UTF-8"?>
<svg id="Layer_1" data-name="Layer 1" xmlns="http://www.w3.org/2000/svg" viewBox="0 0 250 80">
  <defs>
    <style>
      .cls-1 {
        fill: #fff;
      }
    </style>
  </defs>
  <path class="cls-1" d="M158.42,56.79l-6.04-.02c-.27-.49-.23-1.06-.12-1.62.38-.06.66-.07.99-.28v-17.75s-21.23.02-21.23.02l-.08,16.68,1.47,3.05-7.45-.08,1.74-2.99V21.52s4.29,1.19,4.29,1.19l.02,12.99,21.21.04.05-10.26c0-1.19,1.68-.19,4.05-1.15l.05,30.62,1.17.18c.1.53.13.99-.11,1.65Z"/>
  <path class="cls-1" d="M105.6,56.84l-7.74.03,1.9-2.89v-31.12s-10.56-.01-10.56-.01c-.49.62-.74,1.18-1.5,1.69v-4.56s29.47-.01,29.47-.01v4.68s-1.62-1.81-1.62-1.81l-11.45.03-.02,31.14,1.51,2.83Z"/>
  <path class="cls-1" d="M208.33,72.67c-1.16.65-2.7.54-3.76-.16-.58-.39-.81-1.09-.91-1.75.33-.14.58-.17.88-.14.2,1.24,1.25,1.73,2.41,1.64.56-.04.96-.22,1.24-.6.23-.31.35-.98-.08-1.28-1.3-.92-4.16-.58-4.18-2.63-.01-.87.63-1.56,1.53-1.79,1.83-.48,3.54.29,3.61,1.78,0,.21-.66.37-.81.2-.3-1-1.2-1.53-2.33-1.27-.42.1-.81.27-.97.58-.21.4-.17,1.09.33,1.23l2.73.78c.7.2,1.16.86,1.25,1.4.13.79-.12,1.57-.94,2.02Z"/>
  <path class="cls-1" d="M43.89,65.99c.41-.13.65-.06.93.04v4.48c-.02,1.71-1.23,2.62-2.87,2.6-1.54-.02-2.75-.94-2.76-2.57v-4.54c.3-.14.77-.1.88.05l.05,4.44c.01,1.13.78,1.73,1.84,1.77s1.91-.58,1.92-1.74l.02-4.53Z"/>
  <path class="cls-1" d="M218.22,69.72h-3.86s0,2.44,0,2.44h4.27c.05.32.05.53,0,.81h-5.16s-.02-7.03-.02-7.03h4.84c.27.01.28.73-.01.73l-3.86.04c-.13.71-.1,1.39-.05,2.19l3.84.02c.03.17.06.33,0,.78Z"/>
  <path class="cls-1" d="M117.44,72.72c0,.43-.85.38-.85.1l-.05-3.23-3.76.05-.03,3.3c-.34.05-.54.05-.86,0l.02-6.91c.11-.15.72-.18.83-.04l.05,2.85h3.68s.13-2.84.13-2.84c.08-.15.76-.11.83.04l.02,6.68Z"/>
  <path class="cls-1" d="M63.41,66.08c.21-.23.63-.25.95-.05l-.03,4.67c-.01,1.57-1.15,2.36-2.62,2.41-1.63.06-2.96-.85-2.95-2.59l.02-4.51c.12-.15.78-.12.84.04l.05,4.46c.01,1.13.73,1.71,1.82,1.76,1.02.05,1.85-.45,1.87-1.55l.05-4.63Z"/>
  <path class="cls-1" d="M193.05,66.08c0-.21.77-.24.86-.03v4.62c0,1.67-1.26,2.44-2.81,2.44s-2.75-.9-2.75-2.59v-4.53c.38-.09.61-.08.9.02l.03,4.51c0,.52.24,1,.48,1.27.4.45.96.46,1.55.47.97.01,1.67-.55,1.68-1.53l.07-4.65Z"/>
  <path class="cls-1" d="M169.48,71.29c.4.78,1.23,1.03,1.95,1.01,2.03-.06,1.63-2.35,2.72-1.55.2.14.02.59-.11.82-.75,1.38-2.2,1.75-3.73,1.37-1.32-.33-2.17-1.67-2.24-3.26-.04-1.02.14-2.01.79-2.76s1.57-1.13,2.71-1.13c1.21,0,2.24.74,2.61,1.94.06.19-.45.36-.66.32-.48-.08-.52-1.89-2.81-1.39-1.62.36-2.15,2.83-1.24,4.61Z"/>
  <path class="cls-1" d="M54.89,72.85c-.13.2-.86.27-1.06-.01l-2.02-2.85-1.91,2.76c-.24.34-.9.33-1.2.12l2.55-3.56-2.3-3.26c.39-.23.99-.18,1.21.15l1.66,2.41,1.5-2.11c.36-.5.9-.79,1.35-.4l-2.3,3.19,2.5,3.58Z"/>
  <path class="cls-1" d="M150.81,66.08l-2.46,3.9-.17,2.9c-.22.12-.56.13-.88.05-.15-.87.37-2.13-.13-2.91l-2.51-3.98c.21-.13.94-.21,1.1.03l2.02,3.11,1.77-2.76c.22-.34.54-.72,1.26-.33Z"/>
  <path class="cls-1" d="M84.14,66.08l-2.5,4.04-.15,2.73c-.01.19-.61.21-.85.06v-2.79s-2.71-4.07-2.71-4.07c.32-.21.96-.23,1.13.03l2.01,3.14,2.11-3.17c.1-.15.56-.31.95.02Z"/>
  <path class="cls-1" d="M35.34,72.21c.16,0,.16.74,0,.75l-4.29.03v-6.97c.28-.09.52-.1.89-.01v6.11s3.41.1,3.41.1Z"/>
  <rect class="cls-1" x="198.51" y="65.91" width=".93" height="7.07" transform="translate(-.09 .25)"/>
  <rect class="cls-1" x="139.63" y="65.93" width=".88" height="7.07"/>
  <path class="cls-1" d="M182.2,69.76c1.23-.17,1.88-.97,1.84-2-.04-.93-.72-1.81-1.78-1.8l-3.91.02v6.95c.35.05.62.07.92-.03l.05-3.01c2.23-.52,2.8.94,3.99,2.96.43.23.86.19,1.16.06-.71-1.21-1.21-2.32-2.27-3.15ZM179.34,69.06l-.04-2.33h2.67c.67,0,1.04.51,1.1,1.05.08.67-.36,1.22-1.1,1.23l-2.63.06Z"/>
  <path class="cls-1" d="M98.69,67.1c-.5-.81-1.3-1.16-2.21-1.15l-3.04.02v7.01s3.02-.03,3.02-.03c.76,0,1.64-.28,2.14-1.02.99-1.48.96-3.42.1-4.83ZM97.09,71.98c-.83.3-1.76.17-2.73.15l-.02-5.38,2.51.09c1.13.04,1.52,1.36,1.52,2.55s-.26,2.22-1.28,2.59Z"/>
  <path class="cls-1" d="M156.84,66.09c-.15-.34-1.02-.25-1.14.08l-2.68,6.78c.38.09.66.06,1.01-.02l.79-2.12h2.98s.88,2.07.88,2.07c.11.27.85.18,1.02-.05l-2.86-6.74ZM155.09,70.09l1.14-3.31,1.26,3.23-2.4.08Z"/>
  <path class="cls-1" d="M124.33,66.1c-.14-.33-1.02-.25-1.15.07l-2.67,6.78c.39.07.67.05,1.01,0l.77-2.13h3.02c.33.75.43,1.49.88,2.07.16.22.83.16,1.01-.05l-2.87-6.73ZM122.58,70.08l1.14-3.31,1.22,3.2c-.75.22-1.5.1-2.36.12Z"/>
  <path class="cls-1" d="M105.97,66.15c-.13-.3-1.01-.36-1.14-.03l-2.64,6.68c.14.32.87.29,1-.05l.75-1.97,3,.02.82,2.05c.09.23.75.24,1.1.07l-2.88-6.76ZM104.22,70.07l1.18-3.3,1.22,3.27-2.4.03Z"/>
  <path class="cls-1" d="M134.49,69.19c.83-.72.88-1.41.61-2.19-.18-.5-.84-1.05-1.59-1.04h-3.3s0,7.01,0,7.01l3.43-.05c1.02-.02,1.74-.69,1.9-1.51.18-.98-.24-1.74-1.05-2.22ZM131.19,66.78l1.91-.04c.63-.01,1.12.26,1.22.81.1.53-.16,1.25-.84,1.27l-2.26.04c-.1-.72-.1-1.33-.02-2.08ZM133.55,72.09l-2.33.05c-.11-.83-.1-1.58,0-2.43l2.25.03c.68.01,1.12.54,1.15,1.09.04.56-.32,1.24-1.07,1.26Z"/>
  <path class="cls-1" d="M72.57,69.78c1.04-.15,1.8-.81,1.83-1.85.03-.91-.55-1.93-1.6-1.94l-4.05-.02v6.99s.91-.03.91-.03l.03-3.06c3.51-.74,2.96,3.74,5.13,3.07-.58-1.06-1.12-2.21-2.25-3.17ZM69.71,69.06l-.03-2.34h2.64c.68.01,1.06.51,1.12,1.05.06.58-.26,1.21-1.04,1.23l-2.69.06Z"/>
  <g>
    <g>
      <path class="cls-1" d="M201.86,28.83c-2.42-4.17-6.25-6.86-10.69-8.08-.11-.46.32-.76.76-.73,3.33.2,6.35,1.48,8.99,3.44,5.45,4.03,8.22,10.38,7.57,17.12-.7,7.32-5.44,13.35-12.42,15.82-7.75,2.74-16.61.64-22.25-5.39-2.43-2.6-3.81-5.7-4.44-9.13-1.84-10.03,4.23-19.57,14.13-22.04.35-.09.62.12.64.37.02.18-.03.59-.32.71-5.63,2.27-9.72,7.08-10.91,13.12-1.12,5.72.39,11.67,4.25,16.04,2.82,3.19,6.65,4.78,10.84,4.97,5.6.26,10.67-2.36,13.63-7.14,3.58-5.77,3.69-13.11.22-19.08Z"/>
      <path class="cls-1" d="M193.87,14.12c-1.91.92-3.82.77-5.49-.32l-2.51-1.63-2.25-.38c-.17-.03-.37-.17-.44-.29-.3-.5,1.86-1.82,3.92-.34,2.64,1.89,5.87,1.82,8.36-.28.3-.25.87-.25,1.19-.15.3.09.78.58.47,1.04-.72,1.11-2.02,1.75-3.26,2.35Z"/>
      <circle class="cls-1" cx="190.3" cy="8.8" r="1.92"/>
    </g>
    <path class="cls-1" d="M228.68,40.59c4.67.07,8.49-3.01,9.48-7.58.83-3.82-.57-7.44-3.87-9.62-2.64-1.74-5.89-2.2-8.97-1.45v31.84s1.58,3.07,1.58,3.07h-7.73s2.03-3.01,2.03-3.01v-31.22s-1.8-2.37-1.8-2.37l7.09-.11c6.6-.1,13.44,1.03,15.58,7.88,1.8,5.74-1.52,11.75-7.27,13.59.76,1.53,1.74,2.52,2.67,3.74,3.35,4.37,7.2,7.97,11.85,11.46-2.9.72-5.71-.41-8-2.2-3.82-2.97-6.94-6.58-9.94-10.37l-2.7-3.67Z"/>
  </g>
  <g>
    <path class="cls-1" d="M34.02,56.81l-7.53.1,1.91-2.88.02-16.9H6.81s-.06,5.44-.06,5.44c-.04,3.85-.2,7.62.09,11.44l1.4,2.85-7.57.03,1.82-2.88.03-31.55-1.71-2.24h6.91c.18-.01.22.68.08.8-.17.14-.55.2-1,.27-.26,4.8-.06,9.59-.01,14.44h21.62s-.05-13.14-.05-13.14c0-.92-1.24-1.36-1.61-2.36l6.69-.02c.27,0,.34.46.27.64-.19.49-1.14.27-1.14,1.14v31.94s1.44,2.88,1.44,2.88Z"/>
    <path class="cls-1" d="M60.48,42.7c-1.66,1.17-3.14,2.4-4.45,3.86-2.22,2.49-4.31,4.96-5.83,7.97-.25.49.25,1.46-.39,1.95l-7.33.03c4.46-5.23,9.12-9.95,14.17-14.45,3.13-2.85,6.59-5.08,10.69-6.25l-4.81-11.14-7.62,16.23c-.48,1.12-1.34,1.91-2.54,2.29l11.78-27.51,12.11,26.46,4.05,8.94c.95,2.1,1.98,4,3.5,5.83-1.4.5-2.6.04-3.77-.63-4.1-2.36-6.15-8-7.93-12.44l3.54-.14c.63-.8-.24-2.15-1.26-2.32-4.69-.78-9.96-1.45-13.91,1.33Z"/>
  </g>
</svg>