<?xml version="1.0" encoding="UTF-8"?>
<svg id="Layer_1" data-name="Layer 1" xmlns="http://www.w3.org/2000/svg" viewBox="0 0 250 250">
  <defs>
    <style>
      .cls-1 {
        fill: #fff;
      }
    </style>
  </defs>
  <path class="cls-1" d="M187.27,108.72c-11.57-19.94-29.83-32.78-51.04-38.6-.52-2.21,1.51-3.61,3.62-3.48,15.92.95,30.3,7.08,42.95,16.42,26.04,19.26,39.24,49.58,36.15,81.78-3.35,34.98-25.97,63.78-59.32,75.56-37.03,13.08-79.34,3.08-106.27-25.72-11.6-12.41-18.19-27.24-21.19-43.61-8.77-47.89,20.2-93.48,67.49-105.25,1.66-.41,2.94.58,3.05,1.75.08.84-.13,2.82-1.53,3.39-26.88,10.86-46.45,33.79-52.11,62.66-5.36,27.33,1.86,55.75,20.28,76.6,13.45,15.22,31.74,22.81,51.77,23.73,26.75,1.23,50.97-11.27,65.12-34.08,17.08-27.55,17.61-62.59,1.04-91.15Z"/>
  <path class="cls-1" d="M149.11,38.49c-9.1,4.38-18.24,3.66-26.23-1.54l-11.98-7.8-10.76-1.82c-.8-.14-1.79-.83-2.11-1.37-1.42-2.4,8.89-8.67,18.74-1.61,12.61,9.04,28.02,8.69,39.93-1.33,1.43-1.2,4.14-1.18,5.69-.73,1.44.41,3.7,2.76,2.27,4.98-3.45,5.32-9.62,8.37-15.56,11.23Z"/>
  <circle class="cls-1" cx="132.07" cy="13.08" r="9.15"/>
</svg>